<?xml version="1.0" encoding="UTF-8"?>
<svg version="1.1" xmlns="http://www.w3.org/2000/svg" width="1080" height="1080">
<path d="M0 0 C1.71875 1.94140625 1.71875 1.94140625 3.5 4.5625 C4.54414062 6.05716797 4.54414062 6.05716797 5.609375 7.58203125 C5.99029297 8.13068848 6.37121094 8.6793457 6.76367188 9.24462891 C9.02855116 12.4603639 11.3899569 15.60378373 13.75 18.75 C14.25692383 19.42708008 14.76384766 20.10416016 15.28613281 20.80175781 C18.85501347 25.54311087 22.52328742 30.19455261 26.25 34.8125 C40.14896109 52.06397432 40.14896109 52.06397432 41 57 C34.09979654 62.44349384 27.07622785 67.71772589 20.03515625 72.9765625 C17.46901871 74.89429043 14.91395779 76.82496353 12.37109375 78.7734375 C11.81977783 79.19383301 11.26846191 79.61422852 10.70043945 80.04736328 C9.21724369 81.17958431 7.73741377 82.31621067 6.2578125 83.453125 C4 85 4 85 2 85 C2 85.66 2 86.32 2 87 C0.68 87.33 -0.64 87.66 -2 88 C-2 88.66 -2 89.32 -2 90 C-3.95703125 91.671875 -3.95703125 91.671875 -6.8125 93.75 C-7.92737055 94.56210585 -9.04193341 95.37463421 -10.15625 96.1875 C-10.77242187 96.63480469 -11.38859375 97.08210937 -12.0234375 97.54296875 C-14.11226543 99.08275693 -16.16618601 100.66223764 -18.21875 102.25 C-30.17210938 111.41290354 -42.67714528 118.99335928 -56 126 C-56.80373047 126.42651855 -57.60746094 126.85303711 -58.43554688 127.29248047 C-94.99684432 146.4351309 -135.23085573 152.38649572 -175.98291016 153.59594727 C-185.50872189 153.9216858 -194.67175436 155.07179303 -204 157 C-204.79535156 157.15952148 -205.59070313 157.31904297 -206.41015625 157.48339844 C-235.08614397 163.40264947 -259.51603165 177.82069839 -282.35888672 195.71777344 C-285.06001394 197.82820488 -287.78085037 199.91287778 -290.5 202 C-291.58343016 202.83320745 -292.66676346 203.66654085 -293.75 204.5 C-295.91666667 206.16666667 -298.08333333 207.83333333 -300.25 209.5 C-300.78665283 209.91282227 -301.32330566 210.32564453 -301.8762207 210.75097656 C-302.95543659 211.58111766 -304.03470062 212.41119618 -305.11401367 213.24121094 C-308.4547843 215.81049111 -311.79381276 218.38201165 -315.13110352 220.95581055 C-316.76700208 222.21497975 -318.40683302 223.46889162 -320.046875 224.72265625 C-321.86590673 226.12542808 -323.67135933 227.54628124 -325.453125 228.99609375 C-326.14921875 229.55425781 -326.8453125 230.11242187 -327.5625 230.6875 C-328.14128906 231.16574219 -328.72007812 231.64398437 -329.31640625 232.13671875 C-331 233 -331 233 -332.953125 232.9453125 C-335.86113967 231.60229809 -337.21411368 229.70006291 -339.1875 227.1875 C-340.363125 225.69863281 -340.363125 225.69863281 -341.5625 224.1796875 C-345.42784604 219.15907377 -349.23182632 214.09387915 -353 209 C-356.73238663 203.95597363 -360.5584417 198.99421292 -364.4375 194.0625 C-364.91276123 193.45704346 -365.38802246 192.85158691 -365.87768555 192.2277832 C-367.99074859 189.53892592 -370.11297151 186.86053862 -372.265625 184.203125 C-372.89984375 183.41421875 -373.5340625 182.6253125 -374.1875 181.8125 C-374.73792969 181.13832031 -375.28835938 180.46414063 -375.85546875 179.76953125 C-377 178 -377 178 -377 175 C-375.14109846 173.34189634 -373.32108705 171.89379664 -371.3125 170.4375 C-370.11304923 169.54327988 -368.91383707 168.64873964 -367.71484375 167.75390625 C-367.09722168 167.29773926 -366.47959961 166.84157227 -365.84326172 166.37158203 C-363.53686429 164.65537796 -361.26544659 162.89677541 -358.99511719 161.13330078 C-354.57266448 157.69850252 -350.10965114 154.33138903 -345.5625 151.0625 C-341.36976886 148.04082112 -337.29768415 144.89825487 -333.25 141.6875 C-306.65101629 120.65557631 -278.02748559 101.09243241 -244.984375 91.8515625 C-242.55461674 91.15825451 -240.20159172 90.38550379 -237.81640625 89.55859375 C-232.68105323 87.83145228 -227.47351881 86.60849426 -222.1875 85.4375 C-221.21699707 85.22061523 -220.24649414 85.00373047 -219.24658203 84.78027344 C-203.97228337 81.40759365 -189.19994575 79.9806086 -173.56295776 79.67007446 C-160.53705118 79.38546576 -147.77546415 78.73322455 -135 76 C-133.65083496 75.71213623 -133.65083496 75.71213623 -132.27441406 75.41845703 C-101.9243291 68.6987472 -77.00609317 54.35017142 -52.71850586 35.34399414 C-50.69699301 33.76302693 -48.67082202 32.18811977 -46.64453125 30.61328125 C-43.67533112 28.30466433 -40.70910757 25.99233182 -37.74609375 23.67578125 C-30.24470011 17.81590957 -22.72227316 11.98523966 -15.125 6.25 C-14.13584595 5.49843628 -14.13584595 5.49843628 -13.12670898 4.73168945 C-4.22531341 -1.95336909 -4.22531341 -1.95336909 0 0 Z " fill="#F8F8F8" transform="translate(708,424)"/>
<path d="M0 0 C3.95750312 0.55135897 6.32706985 1.65529748 9.50390625 4.0546875 C10.73850586 4.97701172 10.73850586 4.97701172 11.99804688 5.91796875 C12.84431641 6.56378906 13.69058594 7.20960938 14.5625 7.875 C15.41263672 8.51308594 16.26277344 9.15117187 17.13867188 9.80859375 C19.43165196 11.53147604 21.7162648 13.26489804 24 15 C24.75015381 15.52223145 25.50030762 16.04446289 26.27319336 16.58251953 C26.84303955 17.05028809 27.41288574 17.51805664 28 18 C28 18.66 28 19.32 28 20 C28.73605469 20.26039063 29.47210938 20.52078125 30.23046875 20.7890625 C33.06760524 22.02955941 34.95158558 23.38730296 37.3125 25.375 C63.93072208 47.18605063 89.42783938 63.0813456 125 60 C151.27282062 55.92592783 171.08090298 41.87606879 190.87451172 25.05029297 C191.49084473 24.53354004 192.10717773 24.01678711 192.7421875 23.484375 C193.2769873 23.02772461 193.81178711 22.57107422 194.36279297 22.10058594 C196.21454641 20.85577465 197.82182789 20.41799117 200 20 C200 19.34 200 18.68 200 18 C201.30886617 17.11563096 202.6246237 16.24075852 203.9609375 15.3984375 C206.58362659 13.59973502 208.98963641 11.59227119 211.4375 9.5625 C223.05136139 0 223.05136139 0 228 0 C229.80313247 1.92696569 231.28716839 3.7455533 232.8125 5.875 C233.25553467 6.47143311 233.69856934 7.06786621 234.1550293 7.68237305 C236.61255969 11.01067841 238.97732117 14.39730097 241.3125 17.8125 C244.47131447 22.41191394 247.95950035 26.69362282 251.5 31 C265 47.43821266 265 47.43821266 265 51 C265.66 51 266.32 51 267 51 C268.6875 52.75 268.6875 52.75 270 55 C269.9140625 56.87890625 269.9140625 56.87890625 269 59 C266.69921875 61.04296875 266.69921875 61.04296875 263.6875 63.1875 C262.59990121 63.97085569 261.51267285 64.7547259 260.42578125 65.5390625 C259.58200928 66.14089355 259.58200928 66.14089355 258.72119141 66.75488281 C256.99353921 68.00467376 255.29664195 69.28729682 253.60546875 70.5859375 C253.0638208 71.00077393 252.52217285 71.41561035 251.96411133 71.84301758 C250.44206787 73.01103219 248.92024753 74.17933753 247.3984375 75.34765625 C245 77 245 77 243 77 C243 77.66 243 78.32 243 79 C240.90632857 80.62304788 238.81001137 82.1339852 236.625 83.625 C232.2479416 86.6753263 227.95251731 89.75412969 223.8125 93.125 C199.72133946 112.67213676 172.90460675 127.14200553 142 132 C140.47947021 132.25269653 140.47947021 132.25269653 138.92822266 132.51049805 C130.5352005 133.82538533 122.36561761 134.35281085 113.875 134.3125 C112.61236328 134.30686035 111.34972656 134.3012207 110.04882812 134.29541016 C86.4149778 133.99171819 64.06642275 128.76938203 43 118 C41.80890625 117.4328125 40.6178125 116.865625 39.390625 116.28125 C26.05464096 109.8753188 14.84319742 101.43197396 3.27734375 92.3359375 C-0.92905754 89.03611207 -5.22624206 85.89736132 -9.5703125 82.78125 C-12.90499059 80.33653423 -16.10955655 77.7439471 -19.32421875 75.14453125 C-26.71783117 69.21884772 -34.22837432 63.42206443 -42 58 C-41.40408291 54.23449494 -39.73141458 52.14348258 -37.3125 49.25 C-34.79131412 46.18599652 -32.30097357 43.12499543 -29.9375 39.9375 C-27.82752581 37.09561064 -25.67902909 34.28934796 -23.5 31.5 C-20.85135606 28.10534063 -18.24250128 24.68549099 -15.66796875 21.234375 C-14.3827621 19.51273986 -13.09277927 17.79466944 -11.80078125 16.078125 C-7.80127713 10.7630815 -3.83117643 5.43779881 0 0 Z " fill="#F7F7F7" transform="translate(420,346)"/>
<path d="M0 0 C2.59337123 0.00314319 5.18557884 -0.0203173 7.77880859 -0.0456543 C22.35847371 -0.10193407 36.67001302 1.35036179 50.55615234 6.06567383 C51.33152344 6.32026367 52.10689453 6.57485352 52.90576172 6.8371582 C76.55823402 14.77255305 96.51958069 26.9006278 115.99365234 42.31567383 C118.34694529 44.17095049 120.70152755 46.02458791 123.05615234 47.87817383 C123.64130615 48.3394165 124.22645996 48.80065918 124.8293457 49.27587891 C130.47891099 53.71926004 136.226402 58.02642424 141.99365234 62.31567383 C144.14099075 63.91784322 146.28623461 65.52275921 148.43115234 67.12817383 C149.37861328 67.83586914 150.32607422 68.54356445 151.30224609 69.27270508 C153.90139789 71.24564614 156.4551397 73.26551389 158.99365234 75.31567383 C158.42260442 79.32237077 156.38947475 81.53665258 153.80615234 84.56567383 C150.04309056 89.05171756 146.46556819 93.60378804 142.99365234 98.31567383 C138.12824736 104.86665919 133.20054647 111.32936924 128.03662109 117.64770508 C126.48143603 119.67866377 125.06215554 121.68912432 123.66943359 123.82739258 C123.0787207 124.72566772 123.0787207 124.72566772 122.47607422 125.64208984 C121.71061868 126.81886592 120.95988928 128.00538631 120.22607422 129.20214844 C118.51944122 131.82085216 117.59051105 133.17643774 114.48193359 133.90161133 C111.38180676 133.17159716 110.12718562 132.04844437 107.86865234 129.81567383 C103.77188499 125.9622788 99.49291534 122.68911049 94.91943359 119.42504883 C91.87937129 117.23328161 88.90086681 114.97679365 85.93115234 112.69067383 C85.39965576 112.28163818 84.86815918 111.87260254 84.32055664 111.45117188 C81.08138623 108.9507679 77.86415497 106.424319 74.65771484 103.88208008 C65.72963814 96.82480263 56.79789919 90.10963656 46.99365234 84.31567383 C46.07197266 83.75364258 45.15029297 83.19161133 44.20068359 82.61254883 C24.39236149 71.54894438 -0.42278167 70.35511959 -22.02587891 76.12426758 C-35.82182074 80.12911848 -47.80113391 87.42673218 -59.00634766 96.31567383 C-61.27603241 98.10879776 -63.54735224 99.89984442 -65.81884766 101.69067383 C-66.73138306 102.41154175 -66.73138306 102.41154175 -67.66235352 103.14697266 C-71.22342447 105.94980359 -74.82413291 108.6723114 -78.50634766 111.31567383 C-82.81059632 114.41193543 -87.02053741 117.6089056 -91.19384766 120.87817383 C-91.79189209 121.34586182 -92.38993652 121.8135498 -93.00610352 122.29541016 C-96.94307313 125.40245061 -100.68619357 128.64660733 -104.26025391 132.17114258 C-106.69944674 133.7699871 -108.15145399 133.81471823 -111.00634766 133.31567383 C-112.63916016 131.62036133 -112.63916016 131.62036133 -114.13134766 129.19067383 C-117.03402759 124.71966138 -120.11911557 120.53593949 -123.44384766 116.37817383 C-137.00634766 99.27286428 -137.00634766 99.27286428 -137.00634766 96.31567383 C-137.66634766 96.31567383 -138.32634766 96.31567383 -139.00634766 96.31567383 C-140.90181025 94.12358172 -142.68390835 91.92504377 -144.44384766 89.62817383 C-144.93433594 89.00233398 -145.42482422 88.37649414 -145.93017578 87.73168945 C-151.63194659 80.38325339 -151.63194659 80.38325339 -153.00634766 77.31567383 C-151.80900844 73.96945651 -150.14103673 72.39230522 -147.26025391 70.39770508 C-146.51050293 69.86991455 -145.76075195 69.34212402 -144.98828125 68.79833984 C-144.18986816 68.24718506 -143.39145508 67.69603027 -142.56884766 67.12817383 C-136.36589979 62.75565435 -130.35460898 58.3193362 -124.56103516 53.41333008 C-121.12931393 50.59554063 -117.56781301 47.966288 -114.00634766 45.31567383 C-112.6956925 44.32839981 -111.38578499 43.3401324 -110.07666016 42.35083008 C-95.11125754 31.06366649 -95.11125754 31.06366649 -88.00634766 26.31567383 C-86.67603516 25.40108398 -86.67603516 25.40108398 -85.31884766 24.46801758 C-68.21554389 13.26624441 -48.92216628 6.48581856 -29.00634766 2.31567383 C-28.13107422 2.12207275 -27.25580078 1.92847168 -26.35400391 1.72900391 C-17.59810398 0.00702044 -8.8888702 -0.02243405 0 0 Z " fill="#F7F7F7" transform="translate(543.00634765625,600.684326171875)"/>
<path d="M0 0 C1.860171 2.00922317 3.41536318 3.91611232 5 6.125 C5.42539062 6.69476563 5.85078125 7.26453125 6.2890625 7.8515625 C8.98324878 11.48788754 11.51656502 15.2173606 14 19 C13.67 19.66 13.34 20.32 13 21 C11.87064804 19.58680023 10.74669374 18.16928595 9.625 16.75 C8.99851562 15.96109375 8.37203125 15.1721875 7.7265625 14.359375 C6.21089263 12.28818811 5.05780366 10.32930503 4 8 C3.34 8 2.68 8 2 8 C-1 3.61538462 -1 3.61538462 -1 1 C-11.83503686 8.56894921 -11.83503686 8.56894921 -22 17 C-22.66 16.67 -23.32 16.34 -24 16 C-6.76595745 0 -6.76595745 0 0 0 Z " fill="#303030" transform="translate(648,346)"/>
<path d="M0 0 C0.66 0.33 1.32 0.66 2 1 C1.195625 1.61875 0.39125 2.2375 -0.4375 2.875 C-3.03874519 4.74164041 -3.03874519 4.74164041 -4 7 C-3.34 7.33 -2.68 7.66 -2 8 C-3.49739583 9.20442708 -4.99479167 10.40885417 -6.4921875 11.61328125 C-8.25292107 13.12270545 -8.25292107 13.12270545 -10 16 C-10 15.34 -10 14.68 -10 14 C-10.763125 14 -11.52625 14 -12.3125 14 C-14.20833333 14 -16.10416667 14 -18 14 C-15.75043199 12.22861556 -13.50036258 10.45787453 -11.25 8.6875 C-10.29867187 7.93823242 -10.29867187 7.93823242 -9.328125 7.17382812 C-6.24355585 4.74794301 -3.15493938 2.33433646 0 0 Z " fill="#A0A0A0" transform="translate(657,458)"/>
<path d="M0 0 C0.66 0.33 1.32 0.66 2 1 C2 1.66 2 2.32 2 3 C2.66 3 3.32 3 4 3 C5.6875 4.75 5.6875 4.75 7 7 C6.76356581 9.79217515 6.23007756 10.78792005 4.15234375 12.703125 C3.42144531 13.21359375 2.69054687 13.7240625 1.9375 14.25 C1.20402344 14.77078125 0.47054687 15.2915625 -0.28515625 15.828125 C-0.85105469 16.21484375 -1.41695312 16.6015625 -2 17 C-2.66 16.67 -3.32 16.34 -4 16 C-3.67 14.35 -3.34 12.7 -3 11 C-2.34 11 -1.68 11 -1 11 C0.62950412 6.87831311 1.26264601 4.29299643 0 0 Z " fill="#828282" transform="translate(683,394)"/>
<path d="M0 0 C0.66 0.33 1.32 0.66 2 1 C1.39671875 1.43570313 0.7934375 1.87140625 0.171875 2.3203125 C-5.21935161 6.24686823 -5.21935161 6.24686823 -9.375 11.375 C-11 14 -11 14 -14 15 C-14.66 15.66 -15.32 16.32 -16 17 C-17.98821313 17.39764263 -19.98944339 17.73775349 -22 18 C-18.04436496 13.86838893 -13.79445755 10.29731073 -9.3125 6.75 C-8.63638672 6.20859375 -7.96027344 5.6671875 -7.26367188 5.109375 C-2.27232143 1.13616071 -2.27232143 1.13616071 0 0 Z " fill="#696969" transform="translate(364,574)"/>
<path d="M0 0 C0.66 0.33 1.32 0.66 2 1 C1.360625 1.226875 0.72125 1.45375 0.0625 1.6875 C-0.618125 2.120625 -1.29875 2.55375 -2 3 C-2.10570312 3.8146875 -2.21140625 4.629375 -2.3203125 5.46875 C-2.54460937 6.3040625 -2.76890625 7.139375 -3 8 C-5.15234375 9.08203125 -5.15234375 9.08203125 -7.9375 9.8125 C-14.46587708 11.87184408 -18.94720215 15.48426744 -24 20 C-24.66 19.67 -25.32 19.34 -26 19 C-17.52764423 12.35800587 -8.91359803 6.03965562 0 0 Z " fill="#464646" transform="translate(410,540)"/>
<path d="M0 0 C0.33 1.32 0.66 2.64 1 4 C1.99 4 2.98 4 4 4 C4.33 5.98 4.66 7.96 5 10 C1.30123909 8.62712658 -1.9514476 6.93644547 -5.3125 4.875 C-6.63701172 4.06675781 -6.63701172 4.06675781 -7.98828125 3.2421875 C-8.65214844 2.83226562 -9.31601562 2.42234375 -10 2 C-9.38382813 1.84660156 -8.76765625 1.69320312 -8.1328125 1.53515625 C-6.71120619 1.17845283 -5.29187523 0.81255521 -3.875 0.4375 C-2 0 -2 0 0 0 Z " fill="#B8B8B8" transform="translate(595,680)"/>
<path d="M0 0 C0.66 0.33 1.32 0.66 2 1 C1.39671875 1.44730469 0.7934375 1.89460938 0.171875 2.35546875 C-4.91246079 6.18741783 -4.91246079 6.18741783 -9.25 10.8125 C-11.32865555 13.41081944 -12.91752008 13.87226344 -16 15 C-17.70294787 16.28667172 -19.37946188 17.61096733 -21 19 C-21.66 18.67 -22.32 18.34 -23 18 C-15.49857234 11.75373248 -7.85186838 5.79640545 0 0 Z " fill="#4C4C4C" transform="translate(696,428)"/>
<path d="M0 0 C0.66 0.33 1.32 0.66 2 1 C1.01 1.33 0.02 1.66 -1 2 C-1.12375 2.598125 -1.2475 3.19625 -1.375 3.8125 C-2.28601298 7.00104544 -4.37615941 8.11621701 -7 10 C-6.67 10.66 -6.34 11.32 -6 12 C-8.64 12 -11.28 12 -14 12 C-10.83525695 8.74483572 -7.67247209 5.67991207 -4 3 C-3.34 3 -2.68 3 -2 3 C-2 2.34 -2 1.68 -2 1 C-1.34 0.67 -0.68 0.34 0 0 Z " fill="#8E8E8E" transform="translate(622,363)"/>
<path d="M0 0 C2.91517292 1.07401108 4.77810176 1.77810176 7 4 C6.76202552 8.01912454 4.18416689 10.52524796 1.6875 13.5 C0.90761719 14.4384375 0.12773438 15.376875 -0.67578125 16.34375 C-2.70524817 18.66314076 -4.78909381 20.85486448 -7 23 C-5.56361605 18.68299905 -3.38741652 15.81262342 -0.4375 12.375 C2.91155224 8.54716362 2.91155224 8.54716362 5 4 C4.360625 3.71125 3.72125 3.4225 3.0625 3.125 C1 2 1 2 0 0 Z " fill="#333333" transform="translate(695,672)"/>
<path d="M0 0 C0 0.66 0 1.32 0 2 C-1.175625 2.12375 -1.175625 2.12375 -2.375 2.25 C-3.24125 2.4975 -4.1075 2.745 -5 3 C-5.433125 3.928125 -5.433125 3.928125 -5.875 4.875 C-7.35017503 7.66144172 -9.12860403 7.99951604 -11.98046875 9.07421875 C-15.7094871 10.78365269 -18.81602406 13.44454918 -22 16 C-22.66 15.67 -23.32 15.34 -24 15 C-19.43825652 10.66078059 -14.56248736 7.35612869 -9.1875 4.125 C-8.51710693 3.71967041 -7.84671387 3.31434082 -7.15600586 2.89672852 C-2.25857868 0 -2.25857868 0 0 0 Z " fill="#3E3E3E" transform="translate(467,621)"/>
<path d="M0 0 C-1.32 0.33 -2.64 0.66 -4 1 C-4 1.66 -4 2.32 -4 3 C-5.98 3.99 -5.98 3.99 -8 5 C-8 4.34 -8 3.68 -8 3 C-8.52078125 3.31710937 -9.0415625 3.63421875 -9.578125 3.9609375 C-12.67408709 5.28920511 -15.39404121 5.42364247 -18.75 5.625 C-19.92046875 5.69976562 -21.0909375 5.77453125 -22.296875 5.8515625 C-23.18890625 5.90054687 -24.0809375 5.94953125 -25 6 C-20.639215 3.67478438 -16.13326126 2.55888038 -11.375 1.3125 C-10.50359375 1.07466797 -9.6321875 0.83683594 -8.734375 0.59179688 C-7.90164063 0.37201172 -7.06890625 0.15222656 -6.2109375 -0.07421875 C-5.45087402 -0.27619873 -4.69081055 -0.47817871 -3.90771484 -0.6862793 C-2 -1 -2 -1 0 0 Z " fill="#787878" transform="translate(598,495)"/>
<path d="M0 0 C0 0.66 0 1.32 0 2 C7.26 2 14.52 2 22 2 C22 2.33 22 2.66 22 3 C-3.76376337 3.20638953 -3.76376337 3.20638953 -16 2 C-16 1.67 -16 1.34 -16 1 C-13.89594609 0.83191581 -11.79175242 0.66558052 -9.6875 0.5 C-8.51574219 0.4071875 -7.34398437 0.314375 -6.13671875 0.21875 C-4.094806 0.07635011 -2.0468721 0 0 0 Z " fill="#989898" transform="translate(522,476)"/>
<path d="M0 0 C0.66 0.33 1.32 0.66 2 1 C1.8125 3.375 1.8125 3.375 1 6 C-2.45095757 7.97197576 -6.09460525 8.4550612 -10 9 C-6.83047153 5.73991357 -3.60062011 2.77762123 0 0 Z " fill="#919191" transform="translate(382,560)"/>
<path d="M0 0 C0.66 0.33 1.32 0.66 2 1 C0.33333333 2.66666667 -1.33333333 4.33333333 -3 6 C-3.598125 6.721875 -4.19625 7.44375 -4.8125 8.1875 C-7.98325843 10.81469984 -10.98252941 11.19650588 -15 12 C-11.99764638 8.82608332 -8.80246358 6.28747399 -5.25 3.75 C-4.26515625 3.04359375 -3.2803125 2.3371875 -2.265625 1.609375 C-1.51796875 1.07828125 -0.7703125 0.5471875 0 0 Z " fill="#727272" transform="translate(597,382)"/>
<path d="M0 0 C0.66 0.33 1.32 0.66 2 1 C2 3 2 5 2 7 C1.01 7.66 0.02 8.32 -1 9 C-1.33 9.66 -1.66 10.32 -2 11 C-5.01875733 7.61899179 -5.01875733 7.61899179 -4.9375 4.9375 C-3.75043057 2.48422318 -2.264488 1.46096 0 0 Z " fill="#F1F1F1" transform="translate(397,672)"/>
<path d="M0 0 C0.66 0 1.32 0 2 0 C3.70690474 2.19756551 5.30431436 4.39558115 6.875 6.6875 C7.74603168 7.94235425 8.61840783 9.19627643 9.4921875 10.44921875 C9.91209961 11.05169434 10.33201172 11.65416992 10.76464844 12.27490234 C12.42193041 14.58920164 14.19264489 16.80175181 16 19 C15.67 19.66 15.34 20.32 15 21 C0 5.22077922 0 5.22077922 0 0 Z " fill="#3B3B3B" transform="translate(352,627)"/>
<path d="M0 0 C0.66 0 1.32 0 2 0 C3.88536423 2.75762913 5.54605692 5.62108546 7.24609375 8.49609375 C8.8190101 11.27055597 8.8190101 11.27055597 12 12 C12 11.34 12 10.68 12 10 C14 8.375 14 8.375 16 7 C16.66 7.33 17.32 7.66 18 8 C13.74742884 12.86008132 13.74742884 12.86008132 10.55859375 13.45703125 C8 13 8 13 6.015625 10.91796875 C5.43296875 10.01691406 4.8503125 9.11585938 4.25 8.1875 C3.36054688 6.84751953 3.36054688 6.84751953 2.453125 5.48046875 C1 3 1 3 0 0 Z " fill="#323232" transform="translate(424,721)"/>
<path d="M0 0 C2.625 0.375 2.625 0.375 5 1 C1.83047153 4.26008643 -1.39937989 7.22237877 -5 10 C-5.66 9.67 -6.32 9.34 -7 9 C-6.67 7.35 -6.34 5.7 -6 4 C-4.35 4.33 -2.7 4.66 -1 5 C-1.33 4.01 -1.66 3.02 -2 2 C-1.34 1.34 -0.68 0.68 0 0 Z " fill="#A5A5A5" transform="translate(394,638)"/>
<path d="M0 0 C0.66 0.33 1.32 0.66 2 1 C1.2884375 1.61875 1.2884375 1.61875 0.5625 2.25 C-1.15715973 3.86690007 -1.15715973 3.86690007 -1.3515625 5.99609375 C-2 8 -2 8 -3.77734375 9.08203125 C-4.49019531 9.32308594 -5.20304687 9.56414063 -5.9375 9.8125 C-6.64777344 10.06644531 -7.35804688 10.32039062 -8.08984375 10.58203125 C-10 11 -10 11 -12 10 C-10.82630859 9.04287109 -10.82630859 9.04287109 -9.62890625 8.06640625 C-8.61699219 7.24011719 -7.60507812 6.41382813 -6.5625 5.5625 C-5.55316406 4.73878906 -4.54382813 3.91507813 -3.50390625 3.06640625 C-1.70216039 1.58798996 -1.70216039 1.58798996 0 0 Z " fill="#848484" transform="translate(430,645)"/>
<path d="M0 0 C0.66 0 1.32 0 2 0 C3.54076588 1.8649811 4.96753238 3.72578451 6.375 5.6875 C9.17720319 9.52530002 12.0028609 13.31173978 15 17 C14.67 17.66 14.34 18.32 14 19 C0 3.96954315 0 3.96954315 0 0 Z " fill="#383838" transform="translate(337,608)"/>
<path d="M0 0 C0.99 0.33 1.98 0.66 3 1 C2.34 2.32 1.68 3.64 1 5 C0.443125 4.8040625 -0.11375 4.608125 -0.6875 4.40625 C-3.5861095 3.89703482 -5.24091997 4.52422779 -8 5.5 C-11.4673824 6.72626939 -13.48460668 7.23689765 -17 6 C-15.41058594 5.47599609 -15.41058594 5.47599609 -13.7890625 4.94140625 C-12.40101541 4.48185012 -11.01299601 4.02221036 -9.625 3.5625 C-8.57699219 3.21735352 -8.57699219 3.21735352 -7.5078125 2.86523438 C-3.68189163 1.61264601 -3.68189163 1.61264601 0 0 Z " fill="#767676" transform="translate(570,399)"/>
<path d="M0 0 C0.66 0 1.32 0 2 0 C2 0.66 2 1.32 2 2 C3.07507813 2.37125 3.07507813 2.37125 4.171875 2.75 C7.30774775 4.1360211 9.59504167 5.83787825 12.25 8 C13.12140625 8.70125 13.9928125 9.4025 14.890625 10.125 C17 12 17 12 18 14 C13.28652988 12.67433653 10.46465428 9.83427786 6.9375 6.62109375 C4.76591209 4.80414016 2.72660908 3.7668588 0 3 C0 2.01 0 1.02 0 0 Z " fill="#454545" transform="translate(446,364)"/>
<path d="M0 0 C2.64 0 5.28 0 8 0 C5.83385197 2.30874711 3.60793392 4.05290181 0.9375 5.75 C-0.10083984 6.42289063 -0.10083984 6.42289063 -1.16015625 7.109375 C-1.76730469 7.40328125 -2.37445313 7.6971875 -3 8 C-3.66 7.67 -4.32 7.34 -5 7 C-4.0409375 6.1028125 -4.0409375 6.1028125 -3.0625 5.1875 C-0.79689611 3.09189663 -0.79689611 3.09189663 0 0 Z " fill="#8A8A8A" transform="translate(449,597)"/>
<path d="M0 0 C0.66 0.33 1.32 0.66 2 1 C1.525625 1.598125 1.05125 2.19625 0.5625 2.8125 C-1.16465744 5.00382924 -1.16465744 5.00382924 -2 8 C-2.99 8.33 -3.98 8.66 -5 9 C-6.32 8.34 -7.64 7.68 -9 7 C-6.03 4.69 -3.06 2.38 0 0 Z " fill="#8E8E8E" transform="translate(441,637)"/>
<path d="M0 0 C0.66 0.33 1.32 0.66 2 1 C0.40629329 2.36646148 -1.20032982 3.71787166 -2.8125 5.0625 C-4.15248047 6.19365234 -4.15248047 6.19365234 -5.51953125 7.34765625 C-6.74736328 8.16556641 -6.74736328 8.16556641 -8 9 C-8.99 8.67 -9.98 8.34 -11 8 C-10.34 8 -9.68 8 -9 8 C-8.979375 7.401875 -8.95875 6.80375 -8.9375 6.1875 C-8 4 -8 4 -4.5 2.3125 C-3.345 1.879375 -2.19 1.44625 -1 1 C-0.67 0.67 -0.34 0.34 0 0 Z " fill="#797979" transform="translate(385,648)"/>
<path d="M0 0 C3.53566354 1.61246413 6.54775323 3.71959647 9.6875 6 C10.66074219 6.70125 11.63398437 7.4025 12.63671875 8.125 C15 10 15 10 16 12 C11.89771221 10.56007449 8.69601883 8.55506592 5.1875 6 C4.21167969 5.29875 3.23585938 4.5975 2.23046875 3.875 C1.49441406 3.25625 0.75835938 2.6375 0 2 C0 1.34 0 0.68 0 0 Z " fill="#3E3E3E" transform="translate(648,636)"/>
<path d="M0 0 C0 0.66 0 1.32 0 2 C-1.75 3.5078125 -1.75 3.5078125 -4 5.125 C-4.7425 5.66382813 -5.485 6.20265625 -6.25 6.7578125 C-6.8275 7.16773438 -7.405 7.57765625 -8 8 C-8.66 7.67 -9.32 7.34 -10 7 C-9.67 5.68 -9.34 4.36 -9 3 C-8.34 3 -7.68 3 -7 3 C-6.67 2.34 -6.34 1.68 -6 1 C-3.911361 0.32624548 -2.19636905 0 0 0 Z " fill="#828282" transform="translate(706,512)"/>
<path d="M0 0 C0.66 0.33 1.32 0.66 2 1 C1.360625 1.226875 0.72125 1.45375 0.0625 1.6875 C-2.27193661 2.85250896 -2.27193661 2.85250896 -2.75 5.625 C-2.8325 6.40875 -2.915 7.1925 -3 8 C-4.98 8.33 -6.96 8.66 -9 9 C-6.78310162 4.56620325 -4.22271781 2.53363068 0 0 Z " fill="#909090" transform="translate(410,540)"/>
<path d="M0 0 C0.5775 0.165 1.155 0.33 1.75 0.5 C4.26664369 1.14462031 4.26664369 1.14462031 8 1 C8.66 1.33 9.32 1.66 10 2 C9.67 2.66 9.34 3.32 9 4 C8.34 3.67 7.68 3.34 7 3 C7.33 3.99 7.66 4.98 8 6 C4.08597051 4.73058503 2.20927127 3.48832306 0 0 Z " fill="#8F8F8F" transform="translate(621,706)"/>
<path d="M0 0 C-0.66 0 -1.32 0 -2 0 C-2 1.32 -2 2.64 -2 4 C-3.03125 3.814375 -4.0625 3.62875 -5.125 3.4375 C-8.76148442 3.02692918 -11.45437009 3.221691 -15 4 C-12.69846709 1.69846709 -11.15124095 1.2422972 -8.0625 0.3125 C-7.18722656 0.04050781 -6.31195313 -0.23148438 -5.41015625 -0.51171875 C-3 -1 -3 -1 0 0 Z " fill="#727272" transform="translate(501,608)"/>
<path d="M0 0 C5.27112904 2.79692561 9.59398317 5.98235547 14 10 C10.43833751 10 9.72557364 9.2827458 7 7.125 C4.69749942 5.31963023 2.43897124 3.62598083 0 2 C0 1.34 0 0.68 0 0 Z " fill="#3B3B3B" transform="translate(432,353)"/>
<path d="M0 0 C0.66 0.33 1.32 0.66 2 1 C-0.66666667 3.66666667 -3.33333333 6.33333333 -6 9 C-6.99 8.67 -7.98 8.34 -9 8 C-6.14723863 5.06799526 -3.34920216 2.35684596 0 0 Z " fill="#EAEAEA" transform="translate(451,631)"/>
<path d="M0 0 C2.0625 0.4375 2.0625 0.4375 4 1 C3.375 2.9375 3.375 2.9375 2 5 C-1.125 5.75 -1.125 5.75 -4 6 C-1.125 1.125 -1.125 1.125 0 0 Z " fill="#ABABAB" transform="translate(701,424)"/>
<path d="M0 0 C0.33 1.98 0.66 3.96 1 6 C-2.37503669 4.8141763 -4.64722731 3.72426311 -7 1 C-4.50935112 0.31292445 -2.62113708 0 0 0 Z " fill="#949494" transform="translate(599,684)"/>
<path d="M0 0 C2.31 0.33 4.62 0.66 7 1 C1.85714286 5.42857143 1.85714286 5.42857143 -2 6 C-1.34 4.02 -0.68 2.04 0 0 Z " fill="#9D9D9D" transform="translate(498,681)"/>
<path d="M0 0 C4.875 2.625 4.875 2.625 6 6 C4.68 6 3.36 6 2 6 C1.67 5.01 1.34 4.02 1 3 C0.34 3 -0.32 3 -1 3 C-0.67 2.01 -0.34 1.02 0 0 Z " fill="#E9E9E9" transform="translate(704,425)"/>
<path d="M0 0 C3.19199167 2.41556126 5.74716687 4.68003538 8 8 C7.67 8.66 7.34 9.32 7 10 C1.21538462 5.69230769 1.21538462 5.69230769 0.125 2.1875 C0.08375 1.465625 0.0425 0.74375 0 0 Z " fill="#4F4F4F" transform="translate(666,372)"/>
<path d="M0 0 C0 0.66 0 1.32 0 2 C-3.27037599 5.27037599 -6.5130254 5.56856013 -11 6 C-8.24029211 2.78034079 -4.3526723 0 0 0 Z " fill="#6E6E6E" transform="translate(423,534)"/>
<path d="M0 0 C0.33 0.99 0.66 1.98 1 3 C1.66 3 2.32 3 3 3 C3.33 4.32 3.66 5.64 4 7 C0.63408134 5.55746343 -1.51047079 3.66735273 -4 1 C-2.68 0.67 -1.36 0.34 0 0 Z " fill="#7E7E7E" transform="translate(604,689)"/>
<path d="M0 0 C0 0.66 0 1.32 0 2 C-0.78375 2.0825 -1.5675 2.165 -2.375 2.25 C-5.14749104 2.72806339 -5.14749104 2.72806339 -6.3125 5.0625 C-6.6528125 6.0215625 -6.6528125 6.0215625 -7 7 C-7.99 7 -8.98 7 -10 7 C-8.60449526 2.81348579 -4.64858615 0 0 0 Z " fill="#808080" transform="translate(467,621)"/>
<path d="M0 0 C0.66 0.33 1.32 0.66 2 1 C-0.88341534 5.21422242 -3.04303419 6.76075855 -8 8 C-5.58443874 4.80800833 -3.31996462 2.25283313 0 0 Z " fill="#626262" transform="translate(671,447)"/>
<path d="M0 0 C-2.3125 2.5 -2.3125 2.5 -5 5 C-5.99 5 -6.98 5 -8 5 C-8 4.01 -8 3.02 -8 2 C-4.77208445 -0.1519437 -3.71599191 -0.20086443 0 0 Z " fill="#979797" transform="translate(416,626)"/>
<path d="M0 0 C0.598125 0.165 1.19625 0.33 1.8125 0.5 C4.11344336 1.1114124 4.11344336 1.1114124 7 1 C4.03 3.475 4.03 3.475 1 6 C0.34 5.67 -0.32 5.34 -1 5 C-0.67 3.35 -0.34 1.7 0 0 Z " fill="#7E7E7E" transform="translate(633,441)"/>
<path d="M0 0 C0.66 0.33 1.32 0.66 2 1 C-0.475 4.465 -0.475 4.465 -3 8 C-4.32 7.34 -5.64 6.68 -7 6 C-4.69 4.02 -2.38 2.04 0 0 Z " fill="#7D7D7D" transform="translate(606,375)"/>
<path d="M0 0 C2.125 0.9375 2.125 0.9375 4 2 C3.67 3.32 3.34 4.64 3 6 C0 5 0 5 -1.1875 2.9375 C-1.5896875 1.9784375 -1.5896875 1.9784375 -2 1 C-1.34 0.67 -0.68 0.34 0 0 Z " fill="#EEEEEE" transform="translate(617,618)"/>
<path d="M0 0 C0.66 0.33 1.32 0.66 2 1 C0.07423885 3.43929746 -1.80090595 5.80090595 -4 8 C-4.99 7.34 -5.98 6.68 -7 6 C-4.69 4.02 -2.38 2.04 0 0 Z " fill="#676767" transform="translate(340,592)"/>
<path d="M0 0 C0.66 0.33 1.32 0.66 2 1 C1.01 2.32 0.02 3.64 -1 5 C-0.34 5.66 0.32 6.32 1 7 C-0.32 7.33 -1.64 7.66 -3 8 C-3.75 6.25 -3.75 6.25 -4 4 C-2.0625 1.75 -2.0625 1.75 0 0 Z " fill="#EDEDED" transform="translate(342,592)"/>
<path d="M0 0 C0.33 0.99 0.66 1.98 1 3 C1.66 3.33 2.32 3.66 3 4 C1.625 5.5 1.625 5.5 0 7 C-0.66 7 -1.32 7 -2 7 C-2.6875 5.1875 -2.6875 5.1875 -3 3 C-1.5625 1.25 -1.5625 1.25 0 0 Z " fill="#A3A3A3" transform="translate(655,424)"/>
<path d="M0 0 C5.875 2.75 5.875 2.75 7 5 C6.01 6.485 6.01 6.485 5 8 C0 2.25 0 2.25 0 0 Z " fill="#707070" transform="translate(368,648)"/>
<path d="M0 0 C2.625 0.375 2.625 0.375 5 1 C3.71034824 2.37562854 2.37310707 3.70766393 1 5 C0.34 5 -0.32 5 -1 5 C-1.33 4.01 -1.66 3.02 -2 2 C-1.34 1.34 -0.68 0.68 0 0 Z " fill="#B1B1B1" transform="translate(394,638)"/>
<path d="M0 0 C0.66 0.33 1.32 0.66 2 1 C0.68 2.32 -0.64 3.64 -2 5 C-2.66 4.67 -3.32 4.34 -4 4 C-2.68 2.68 -1.36 1.36 0 0 Z M-6 5 C-5.34 5.33 -4.68 5.66 -4 6 C-4.99 6.99 -5.98 7.98 -7 9 C-7.66 8.34 -8.32 7.68 -9 7 C-8.01 6.34 -7.02 5.68 -6 5 Z " fill="#E9E9E9" transform="translate(630,358)"/>
<path d="M0 0 C0.33 0.66 0.66 1.32 1 2 C1.66 2.33 2.32 2.66 3 3 C3 6 3 6 2 8 C0.4375 6.25 0.4375 6.25 -1 4 C-0.6875 1.75 -0.6875 1.75 0 0 Z " fill="#DBDBDB" transform="translate(393,675)"/>
<path d="M0 0 C0.33 0.66 0.66 1.32 1 2 C1.99 2.33 2.98 2.66 4 3 C2.35 4.32 0.7 5.64 -1 7 C-1.66 6.67 -2.32 6.34 -3 6 C-1.125 1.125 -1.125 1.125 0 0 Z " fill="#939393" transform="translate(428,612)"/>
<path d="M0 0 C3.03869411 1.51934706 3.64410306 3.98004772 5 7 C5 7.66 5 8.32 5 9 C3.68 9 2.36 9 1 9 C0.67 6.03 0.34 3.06 0 0 Z " fill="#BABABA" transform="translate(683,394)"/>
<path d="M0 0 C1.03348696 3.10046087 1.17755913 4.05610218 0 7 C-0.99 7.33 -1.98 7.66 -3 8 C-2.45276317 4.62537285 -1.9451 2.91765 0 0 Z " fill="#E0E0E0" transform="translate(399,376)"/>
<path d="M0 0 C-2.97 2.475 -2.97 2.475 -6 5 C-6.66 4.67 -7.32 4.34 -8 4 C-7 1 -7 1 -4.5625 -0.25 C-2 -1 -2 -1 0 0 Z " fill="#696969" transform="translate(472,706)"/>
<path d="M0 0 C1.32 0.66 2.64 1.32 4 2 C1.03 4.475 1.03 4.475 -2 7 C-2.66 6.67 -3.32 6.34 -4 6 C-3.525625 5.566875 -3.05125 5.13375 -2.5625 4.6875 C-0.76313043 2.97690387 -0.76313043 2.97690387 0 0 Z " fill="#707070" transform="translate(492,686)"/>
<path d="M0 0 C1.67542976 0.28604898 3.34385343 0.61781233 5 1 C3.68 2.32 2.36 3.64 1 5 C0.34 3.68 -0.32 2.36 -1 1 C-0.67 0.67 -0.34 0.34 0 0 Z " fill="#ACACAC" transform="translate(666,416)"/>
</svg>
